<svg width="100" height="100" viewBox="0 0 100 100" fill="none" xmlns="http://www.w3.org/2000/svg">
<path d="M50 0C22.386 0 0 22.3863 0 50C0 77.6148 22.386 100 50 100C77.614 100 100 77.6148 100 50C100 22.3863 77.614 0 50 0ZM75.332 71.7248C42.5615 93.5475 13.2582 70.9653 7.6191 64.3761C22.4023 77.2778 45.6564 81.2857 65.1311 72.1039C76.6714 65.9827 82.8185 57.6913 85.7034 46.6741C88.5892 34.4328 85.1566 22.803 74.3364 14.8453C64.2385 7.50006 51.2537 5.05203 38.2709 8.72407C28.173 12.3972 20.2377 19.1299 17.3529 28.9231C13.7468 39.3289 20.2387 49.7336 31.0578 55.2422C41.877 59.5268 57.0254 57.6902 62.7961 47.8981C66.4021 41.1643 64.9597 32.5951 57.0254 28.3105C53.4194 26.4739 48.5555 26.0845 45.9472 28.5086C42.3554 31.8471 47.8751 28.9197 51.9392 31.0204C54.5068 32.3469 57.6517 34.6241 57.0254 40.5529C56.2379 48.0211 45.4851 51.5713 38.2709 49.1221C30.3366 46.0615 26.7296 39.3289 27.4518 32.5951C28.8942 25.2499 35.3861 19.7413 43.3214 17.9047C57.0264 14.8441 69.288 22.8019 73.6162 33.8203C77.2223 44.2249 71.4526 54.0182 61.3537 60.1394C52.6992 65.0365 42.5992 66.2606 33.2225 63.2C19.5175 58.9153 10.1408 48.5107 9.41957 35.6569C8.69734 19.1299 21.6801 6.88862 39.7134 2.60401C59.9102 -1.06802 80.1071 7.50119 88.7626 23.4145C96.6969 39.9415 92.4452 60.3284 75.332 71.7248Z" fill="url(#paint0_linear_105_20)"/>
<defs>
<linearGradient id="paint0_linear_105_20" x1="50" y1="0" x2="50" y2="100" gradientUnits="userSpaceOnUse">
<stop stop-color="#E1306C"/>
<stop offset="1" stop-color="#371CA2"/>
</linearGradient>
</defs>
</svg>
