<svg width="400" height="600" viewBox="0 0 400 600" fill="none" xmlns="http://www.w3.org/2000/svg">
<rect width="400" height="600" fill="#808080"/>
<path d="M325 190.711C325 182.031 320.336 175 312.566 175H90.6914C82.9258 175 75 182.035 75 190.711V409.289C75 417.969 82.9258 425 90.6914 425H312.566C320.332 425 325 417.965 325 409.289V190.711ZM266.406 190.625V409.379H129.688V190.625H266.406V190.625ZM90.625 409.379V190.625H121.875V409.379H90.625ZM309.375 409.379H274.219V190.625H309.375V409.379Z" fill="#D8D8D8"/>
<path d="M162.566 355.85C163.773 356.55 166.344 356.897 167.691 356.897C169.039 356.897 170.566 356.55 171.773 355.85L253.883 308.486C256.301 307.092 257.789 304.51 257.789 301.721C257.789 298.932 256.227 296.35 253.805 294.955L171.586 247.587C169.168 246.193 164.98 246.193 162.563 247.587C160.145 248.982 157.031 251.564 157.031 254.353V349.081C157.031 351.874 160.148 354.452 162.566 355.85ZM172.656 267.884L231.25 301.717L172.656 335.549V267.884Z" fill="#D8D8D8"/>
<path d="M215.125 298.467L191.687 282.842C189.887 281.642 187.469 282.127 186.27 283.924C185.07 285.72 185.555 288.142 187.352 289.342L210.789 304.967C211.453 305.408 212.207 305.623 212.949 305.623C214.215 305.623 215.453 305.014 216.207 303.885C217.402 302.088 216.918 299.666 215.125 298.467Z" fill="#D8D8D8"/>
<path d="M289.844 400.918C292.004 400.918 293.75 399.171 293.75 397.011V389.199C293.75 387.038 292.004 385.292 289.844 385.292C287.684 385.292 285.938 387.038 285.938 389.199V397.011C285.938 399.171 287.684 400.918 289.844 400.918Z" fill="#D8D8D8"/>
<path d="M289.844 369.667C292.004 369.667 293.75 367.921 293.75 365.761V350.136C293.75 347.975 292.004 346.229 289.844 346.229C287.684 346.229 285.938 347.975 285.938 350.136V365.761C285.938 367.921 287.684 369.667 289.844 369.667Z" fill="#D8D8D8"/>
<path d="M289.844 252.478C292.004 252.478 293.75 250.732 293.75 248.571V232.946C293.75 230.786 292.004 229.04 289.844 229.04C287.684 229.04 285.938 230.786 285.938 232.946V248.571C285.938 250.732 287.684 252.478 289.844 252.478Z" fill="#D8D8D8"/>
<path d="M289.844 330.604C292.004 330.604 293.75 328.858 293.75 326.698V311.072C293.75 308.912 292.004 307.166 289.844 307.166C287.684 307.166 285.938 308.912 285.938 311.072V326.698C285.938 328.858 287.684 330.604 289.844 330.604Z" fill="#D8D8D8"/>
<path d="M289.844 291.541C292.004 291.541 293.75 289.795 293.75 287.635V272.009C293.75 269.849 292.004 268.103 289.844 268.103C287.684 268.103 285.938 269.849 285.938 272.009V287.635C285.938 289.795 287.684 291.541 289.844 291.541Z" fill="#D8D8D8"/>
<path d="M289.844 213.415C292.004 213.415 293.75 211.669 293.75 209.508V201.696C293.75 199.536 292.004 197.789 289.844 197.789C287.684 197.789 285.938 199.536 285.938 201.696V209.508C285.938 211.669 287.684 213.415 289.844 213.415Z" fill="#D8D8D8"/>
<path d="M106.25 385.292C104.094 385.292 102.344 387.038 102.344 389.199V397.011C102.344 399.171 104.094 400.918 106.25 400.918C108.406 400.918 110.156 399.171 110.156 397.011V389.199C110.156 387.038 108.406 385.292 106.25 385.292Z" fill="#D8D8D8"/>
<path d="M106.25 346.229C104.094 346.229 102.344 347.975 102.344 350.136V365.761C102.344 367.921 104.094 369.667 106.25 369.667C108.406 369.667 110.156 367.921 110.156 365.761V350.136C110.156 347.975 108.406 346.229 106.25 346.229Z" fill="#D8D8D8"/>
<path d="M106.25 268.103C104.094 268.103 102.344 269.849 102.344 272.009V287.635C102.344 289.795 104.094 291.541 106.25 291.541C108.406 291.541 110.156 289.795 110.156 287.635V272.009C110.156 269.849 108.406 268.103 106.25 268.103Z" fill="#D8D8D8"/>
<path d="M106.25 229.04C104.094 229.04 102.344 230.786 102.344 232.946V248.571C102.344 250.732 104.094 252.478 106.25 252.478C108.406 252.478 110.156 250.732 110.156 248.571V232.946C110.156 230.786 108.406 229.04 106.25 229.04Z" fill="#D8D8D8"/>
<path d="M106.25 307.166C104.094 307.166 102.344 308.912 102.344 311.072V326.698C102.344 328.858 104.094 330.604 106.25 330.604C108.406 330.604 110.156 328.858 110.156 326.698V311.072C110.156 308.912 108.406 307.166 106.25 307.166Z" fill="#D8D8D8"/>
<path d="M106.25 197.789C104.094 197.789 102.344 199.536 102.344 201.696V209.508C102.344 211.669 104.094 213.415 106.25 213.415C108.406 213.415 110.156 211.669 110.156 209.508V201.696C110.156 199.536 108.406 197.789 106.25 197.789Z" fill="#D8D8D8"/>
</svg>
